# xmcd
#
# Track frame offsets: 
#        150
#        12159
#        21657
#        36097
#        47656
#        58504
#        72086
#        83475
#        94975
#        105430
#        116395
#        128599
#
# Disc length: 1871 seconds
#
# Revision: 0
# Processed by: cddbd v1.5PL3 Copyright (c) Steve Scherf et al.
# Submitted via: ExactAudioCopy v0.95a5
#
DISCID=8f074d0c
DTITLE=Wayne Moore - Walk And Talk With Jesus
DYEAR=2003
DGENRE=Bluegrass
TTITLE0=I Want To Live My Life For Jesus
TTITLE1=The Little Church
TTITLE2=Yesterdays Dream
TTITLE3=If You Think He Don't Love You
TTITLE4=I'll Meet You In Heaven
TTITLE5=His Love
TTITLE6=Written On THe Stone
TTITLE7=Jesus Is My Lord
TTITLE8=Out Of The Blue
TTITLE9=Walk And Talk With Jesus
TTITLE10=Train Of Life
TTITLE11=Grace Mountain ( Instumental )
EXTD=
EXTT0=
EXTT1=
EXTT2=
EXTT3=
EXTT4=
EXTT5=
EXTT6=
EXTT7=
EXTT8=
EXTT9=
EXTT10=
EXTT11=
PLAYORDER=
